<svg xmlns="http://www.w3.org/2000/svg" xmlns:xlink="http://www.w3.org/1999/xlink" viewBox="0 0 334 54.03"><defs><style>.a{fill:#ddaf33;fill-opacity:0.6;}.b,.c{fill:#00562d;}.b,.f{fill-rule:evenodd;}.d{fill:url(#a);}.e{fill:#fff;}.f{fill:url(#b);}.g{fill:#d4ad00;}</style><linearGradient id="a" x1="279.98" y1="-247.62" x2="323.09" y2="-263.56" gradientTransform="matrix(1, 0, 0, -1, -229, -228)" gradientUnits="userSpaceOnUse"><stop offset="0" stop-color="#d0b367"/><stop offset="0.69" stop-color="#fff"/></linearGradient><linearGradient id="b" x1="254.76" y1="-252.21" x2="284.76" y2="-252.21" gradientTransform="matrix(1, 0, 0, -1, -229, -228)" gradientUnits="userSpaceOnUse"><stop offset="0.16" stop-color="#ddaf33"/><stop offset="0.94" stop-color="#ddaf33" stop-opacity="0"/></linearGradient></defs><path class="a" d="M15.76,4h13L28,11.08A1,1,0,0,1,27,12H17.49a1,1,0,0,1-1-.89Z" transform="translate(0 2.03)"/><path class="b" d="M17.22,2.14A1.87,1.87,0,0,0,15.76,4l.74,7.11a1,1,0,0,0,1,.89H27a1,1,0,0,0,1-.89L28.76,4a1.88,1.88,0,0,0-1.47-1.83L22.71,1.08a2,2,0,0,0-.9,0ZM18.39,10,18,6h8.56l-.42,4Z" transform="translate(0 2.03)"/><path class="c" d="M13.76,10h17v2a2,2,0,0,1-2,2h-13a2,2,0,0,1-2-2Z" transform="translate(0 2.03)"/><path class="b" d="M29,19.13A41.54,41.54,0,0,1,28.76,15h-13c0,1.4-.08,2.82-.22,4.23a1,1,0,0,0,.77,1.08,33.19,33.19,0,0,0,5.94.77,32.61,32.61,0,0,0,5.95-.84A1,1,0,0,0,29,19.13ZM13,31.1c.6-2,1.13-4,1.57-6a45.88,45.88,0,0,0,7.64,1A46.63,46.63,0,0,0,29.89,25c.43,2,1,4.05,1.55,6a66.4,66.4,0,0,1-9.2,1.06A66.89,66.89,0,0,1,13,31.1ZM6.39,47.21A31.68,31.68,0,0,0,22.26,51a31.64,31.64,0,0,0,15.86-3.76,105.48,105.48,0,0,1-5-11.23,94.57,94.57,0,0,1-10.91,1.07,94.47,94.47,0,0,1-10.9-.94A104.51,104.51,0,0,1,6.39,47.21Z" transform="translate(0 2.03)"/><path class="d" d="M57.76,44,49.13,13.43h7.34l5.37,21.48h.27L67.6,13.43h7.26l5.49,21.36h.3l5.29-21.36H93.3L84.65,44h-7.5L71.42,23.33H71L65.28,44Z" transform="translate(0 2.03)"/><path class="e" d="M106.29,44.57a14.78,14.78,0,0,1-7.75-2,13.38,13.38,0,0,1-5.1-5.51,18.12,18.12,0,0,1-1.79-8.27,18.27,18.27,0,0,1,1.79-8.29A13.32,13.32,0,0,1,98.54,15a16.25,16.25,0,0,1,15.51,0,13.25,13.25,0,0,1,5.07,5.53,18.14,18.14,0,0,1,1.81,8.29,18,18,0,0,1-1.81,8.27,13.32,13.32,0,0,1-5.07,5.51A14.84,14.84,0,0,1,106.29,44.57Zm0-5.77a6.2,6.2,0,0,0,4.06-1.33,8,8,0,0,0,2.42-3.62,14.66,14.66,0,0,0,.82-5.05,14.73,14.73,0,0,0-.82-5.07,8,8,0,0,0-2.42-3.64,6.16,6.16,0,0,0-4.06-1.35,6.34,6.34,0,0,0-4.14,1.35,8.2,8.2,0,0,0-2.44,3.64A15.24,15.24,0,0,0,99,28.8a15.16,15.16,0,0,0,.8,5.05,8.19,8.19,0,0,0,2.44,3.62A6.39,6.39,0,0,0,106.33,38.8Z" transform="translate(0 2.03)"/><path class="e" d="M136.81,11.43V17h-12V11.43ZM123.59,3.25h7.2V34.79a4.6,4.6,0,0,0,.43,2.22,2.4,2.4,0,0,0,1.2,1,4.68,4.68,0,0,0,1.63.28,7.65,7.65,0,0,0,1.23-.1c.38-.07.68-.13.87-.18l1.22,5.63c-.39.13-.94.27-1.65.43a13.05,13.05,0,0,1-2.59.28,11.88,11.88,0,0,1-4.87-.81,7.53,7.53,0,0,1-3.44-2.83A8.31,8.31,0,0,1,123.59,36Z" transform="translate(0 2.03)"/><path class="e" d="M151.35,44.57a14.77,14.77,0,0,1-7.86-2,13.45,13.45,0,0,1-5-5.55,18.27,18.27,0,0,1-1.75-8.19,18.07,18.07,0,0,1,1.79-8.21A13.37,13.37,0,0,1,143.55,15a14.56,14.56,0,0,1,7.76-2,15.12,15.12,0,0,1,6.58,1.37,11.22,11.22,0,0,1,4.59,3.84,11.4,11.4,0,0,1,2,5.77h-6.88a6.58,6.58,0,0,0-2-3.68,5.71,5.71,0,0,0-4.15-1.49A6.54,6.54,0,0,0,147.53,20a7.72,7.72,0,0,0-2.61,3.38A13.8,13.8,0,0,0,144,28.7a14.23,14.23,0,0,0,.91,5.37,7.82,7.82,0,0,0,2.57,3.44,7.08,7.08,0,0,0,6.76.6,5.69,5.69,0,0,0,2.13-1.77,6.8,6.8,0,0,0,1.17-2.81h6.88a12,12,0,0,1-1.91,5.75,11.3,11.3,0,0,1-4.49,3.9A15,15,0,0,1,151.35,44.57Z" transform="translate(0 2.03)"/><path class="e" d="M173.06,26.08V44h-7.2V3.25h7V18.62h.36a8.9,8.9,0,0,1,3.32-4.08A10.19,10.19,0,0,1,182.35,13a11.23,11.23,0,0,1,5.55,1.33,9,9,0,0,1,3.66,3.9,13.71,13.71,0,0,1,1.31,6.27V44h-7.2V25.64a6.76,6.76,0,0,0-1.59-4.79,5.65,5.65,0,0,0-4.42-1.73,6.93,6.93,0,0,0-3.42.83,5.81,5.81,0,0,0-2.34,2.37A7.77,7.77,0,0,0,173.06,26.08Z" transform="translate(0 2.03)"/><path class="f" d="M63.76-2H59.39L29.26,6l-.5,3,35,41.49Z" transform="translate(0 2.03)"/><path class="g" d="M248.72,34.72v1.89c-1.74,1.63-3.22,3-4.44,3.94a44.16,44.16,0,0,1-3.63,2.7,21.19,21.19,0,0,1-3,1.7,5.41,5.41,0,0,1-2,.51A4.19,4.19,0,0,1,232.27,44a5.81,5.81,0,0,1-1.29-3.9,14.15,14.15,0,0,1,1.11-5.44,27.74,27.74,0,0,1,3.17-5.56c1.38-1.92,3.1-4.06,5.17-6.44a14.44,14.44,0,0,0,2.3-3,.44.44,0,0,0-.13-.33.46.46,0,0,0-.31-.14c-.34,0-1.42.77-3.21,2.31s-4.1,3.8-6.91,6.78-5.84,6.54-9.1,10.66c-.19.22-.77,1-1.75,2.24a26.18,26.18,0,0,1-2.07,2.48,1.65,1.65,0,0,1-1,.58c-.52,0-1-.52-1.33-1.55a9.56,9.56,0,0,1-.57-3.31,4.81,4.81,0,0,1,.7-2.31q.7-1.23,3.05-4.43c1.57-2.14,2.86-3.94,3.89-5.4s2.15-3.24,3.38-5.33c.86-1.44,1.49-2.6,1.9-3.46a5.29,5.29,0,0,0,.62-2.28c0-.56-.16-.85-.49-.85q-1.05,0-3.93,2.79a80.68,80.68,0,0,0-7.13,8.28q-4.25,5.49-8.85,12.71c-1,1.65-1.73,2.76-2.15,3.33a1.75,1.75,0,0,1-1.4.85c-.64,0-1.24-.68-1.8-2a9.38,9.38,0,0,1-.83-3.31,1.67,1.67,0,0,1,.33-.9q3.61-4.84,6-8.21c1.55-2.26,2.94-4.39,4.14-6.42a41.66,41.66,0,0,0,2.64-5,8.53,8.53,0,0,0,.82-3.09c0-.78-.35-1.18-1.07-1.18a7.93,7.93,0,0,0-3,1.13q-2.11,1.13-5.34,3.08t-5.18,3a7.31,7.31,0,0,1-2.91,1c-.61,0-.91-.34-.91-1a19.68,19.68,0,0,1,.39-2.65,12.89,12.89,0,0,1,.79-2.93,11.08,11.08,0,0,1,3-2.91A14.17,14.17,0,0,1,205.52,10c.15,0,.22.06.22.19s-.07.19-.22.33A18.82,18.82,0,0,0,203.84,12a2.53,2.53,0,0,0-.68,1.26,62.12,62.12,0,0,1,9-4.6,18.44,18.44,0,0,1,5.51-1.58,1.84,1.84,0,0,1,1.45,1,10.64,10.64,0,0,1,1.17,2.39,7.34,7.34,0,0,1,.48,1.74,9.78,9.78,0,0,1-.71,3.31c-.48,1.27-1.12,2.75-1.94,4.44l-3,6.31c.95-1.22,1.85-2.36,2.71-3.4s1.72-2.06,2.57-3.05,1.72-2,2.6-3a35.64,35.64,0,0,1,4-3.94,34.71,34.71,0,0,1,4.16-3.08,6.75,6.75,0,0,1,2.62-1.2,2.16,2.16,0,0,1,1.72,1.06,3.86,3.86,0,0,1,.75,2.27,9.28,9.28,0,0,1-1,3c-.7,1.5-1.71,3.42-3.05,5.76s-3.1,5.37-5.3,9.07Q230,26.53,233.34,23t5-5.14a32.45,32.45,0,0,1,2.74-2.47c1-.77,2-1.6,3-2.48l2.4-2.11a12.07,12.07,0,0,1,1.57-1.18,2.49,2.49,0,0,1,1.26-.41q.7,0,1.8,1.65A6,6,0,0,1,252.26,13a2.34,2.34,0,0,1-.64,1.38c-.43.53-1.33,1.52-2.68,3a66.35,66.35,0,0,0-6.48,8.09,44.49,44.49,0,0,0-4.16,7.44,14.78,14.78,0,0,0-1.42,5.32,2.73,2.73,0,0,0,.46,1.76,1.74,1.74,0,0,0,1.41.55,4,4,0,0,0,1.63-.33,10.53,10.53,0,0,0,1.68-.94l1.74-1.15c.77-.46,1.53-1,2.27-1.47s1.32-.93,1.73-1.24S248.52,34.85,248.72,34.72Z" transform="translate(0 2.03)"/><path class="g" d="M266.19,34.77v1.84a14.77,14.77,0,0,1-2.91,2.2,6.48,6.48,0,0,1-3.16.44q-3.57,4.23-6.29,4.23a4.34,4.34,0,0,1-2.8-1,6.88,6.88,0,0,1-2-2.77,9.74,9.74,0,0,1-.76-3.93,8.28,8.28,0,0,1,1.17-3.9,17.49,17.49,0,0,1,3-4,17.08,17.08,0,0,1,4-3,8.36,8.36,0,0,1,3.93-1.14,4.38,4.38,0,0,1,2,.4,1.24,1.24,0,0,1,.74,1.11,2.06,2.06,0,0,1-.63,1.27,2.33,2.33,0,0,1,1.43.72,3.31,3.31,0,0,1,.38,1.86,11.48,11.48,0,0,1-.62,3.32A16.14,16.14,0,0,1,262,36.17l.5.5h.41a1.94,1.94,0,0,0,.92-.24,6.2,6.2,0,0,0,.81-.49Zm-5.66-7.22c-1.52.92-2.82,1.74-3.9,2.49a18.74,18.74,0,0,0-2.75,2.25,6.1,6.1,0,0,0-1.51,2.29c-.46,2.05-.68,3.16-.68,3.32,0,1.21.84,1.82,2.52,1.82q1.18,0,4-2a7.27,7.27,0,0,1-.47-2.47,9.66,9.66,0,0,1,.71-3.53A30.27,30.27,0,0,1,260.53,27.55Z" transform="translate(0 2.03)"/><path class="g" d="M269.73,34.88l-.49,2.31a3.73,3.73,0,0,0-.12,1c0,1,.42,1.48,1.24,1.48s2.7-1.54,5.74-4.61a9,9,0,0,1,1.33-4.12,22,22,0,0,1,2.89-4.09c1.05-1.18,1.83-1.76,2.35-1.76q1.2,0,1.2,1.59a7.65,7.65,0,0,1-.46,2.35A18,18,0,0,1,282,32a26.59,26.59,0,0,1-2.22,3.31c.46.83.92,1.24,1.4,1.24a2.62,2.62,0,0,0,1.33-.43,15.69,15.69,0,0,0,1.83-1.3v1.84a16.84,16.84,0,0,1-2.43,1.65,5.27,5.27,0,0,1-2.3.44,5.42,5.42,0,0,1-2-.75,58,58,0,0,1-4.56,4.44,5.08,5.08,0,0,1-2.86,1.47c-1.26,0-2.34-.76-3.23-2.27a9.72,9.72,0,0,1-1.33-5q0-3.66,4.12-8.76a12.62,12.62,0,0,1,2-2.1,2.8,2.8,0,0,1,1.72-.57,3.91,3.91,0,0,1,1.56.31c.5.2.75.43.75.71,0,.91-.62,2.26-1.84,4A22,22,0,0,1,269.73,34.88Z" transform="translate(0 2.03)"/><path class="g" d="M297.44,34.83v2a27.7,27.7,0,0,1-5,5.18,7,7,0,0,1-3.93,1.74,3.54,3.54,0,0,1-3.35-2.36,12.09,12.09,0,0,1-1.1-5.16,9.68,9.68,0,0,1,.22-2,7.91,7.91,0,0,1,.52-1.6c.21-.43.58-1.08,1.13-2q3.9-6.08,7.14-6.07,1.68,0,1.68,1.29a6.45,6.45,0,0,1-1.09,2.75,12.29,12.29,0,0,1-1.93,2.66,42.49,42.49,0,0,0-3.12,3.21,3.19,3.19,0,0,0-.73,2.06,2.13,2.13,0,0,0,.74,1.65,2.81,2.81,0,0,0,1.93.66,5.59,5.59,0,0,0,2.84-1A35.46,35.46,0,0,0,297.44,34.83Zm-1.87-12.28a2,2,0,0,1-1.3-.52,1.67,1.67,0,0,1-.62-1.32A4.62,4.62,0,0,1,294.8,18a3.15,3.15,0,0,1,2.39-1.48,2,2,0,0,1,1.38.51,1.89,1.89,0,0,1,.55,1.46A4.38,4.38,0,0,1,298,21.12,3.12,3.12,0,0,1,295.57,22.55Z" transform="translate(0 2.03)"/><path class="g" d="M301.59,35.82v.68a3.72,3.72,0,0,0,.79,2.53,2.68,2.68,0,0,0,2.09.91,6.8,6.8,0,0,0,2.79-.64,15.45,15.45,0,0,0,2.87-1.67c.95-.7,2.12-1.63,3.49-2.8V36.5a34.35,34.35,0,0,1-5.82,5.73,9.29,9.29,0,0,1-5.52,2,4.61,4.61,0,0,1-3.88-1.89,8.49,8.49,0,0,1-1.43-5.2,10.32,10.32,0,0,1,1.35-5.23A19.86,19.86,0,0,1,302.71,27a17.43,17.43,0,0,1,4.15-2.7,9.38,9.38,0,0,1,3.68-.9,3.29,3.29,0,0,1,2,.59,2.11,2.11,0,0,1,.75,1.77,5.74,5.74,0,0,1-1.29,3.45,14.78,14.78,0,0,1-3.94,3.4A40.71,40.71,0,0,1,301.59,35.82Zm.27-1.79a15.62,15.62,0,0,0,4.23-2.39,12.22,12.22,0,0,0,2.6-2.73,4.31,4.31,0,0,0,.84-1.91c0-.42-.2-.63-.58-.63a4,4,0,0,0-1.61.63,13.13,13.13,0,0,0-2.25,1.65A12.28,12.28,0,0,0,303,31,7.84,7.84,0,0,0,301.86,34Z" transform="translate(0 2.03)"/><path class="g" d="M313.51,35.6v-.66q7.08-7.47,9.75-10.47.6-3.37,2.91-3.37a2.77,2.77,0,0,1,1.23.33l.17.52a3.18,3.18,0,0,0-.11.93,8.62,8.62,0,0,0,.4,1.94c.26.94.47,1.73.62,2.37a10.21,10.21,0,0,1,.22,2.17,7.75,7.75,0,0,1-.83,3.48A11.69,11.69,0,0,1,325.48,36a25.38,25.38,0,0,1-4,3.12,10,10,0,0,0,1.57.16,6.08,6.08,0,0,0,2.43-.56,14.78,14.78,0,0,0,2.66-1.51q1.36-.94,3.18-2.46v1.84A41.18,41.18,0,0,1,325,41.82a9.37,9.37,0,0,1-4.78,1.77,6.65,6.65,0,0,1-4.78-2.2,5.91,5.91,0,0,1-1.61-2.53A13.43,13.43,0,0,1,313.51,35.6Zm10.24-4.21-.49-4q-1.71,1.94-7.28,7.39a4.66,4.66,0,0,1,2.25,1,15.94,15.94,0,0,1,1.7,2.34A6.54,6.54,0,0,0,322.8,36a5.92,5.92,0,0,0,1-3.64c0-.18,0-.35,0-.5S323.77,31.54,323.75,31.39Z" transform="translate(0 2.03)"/></svg>